/* XPM */
static char *bitcoin32[] = {
/* columns rows colors chars-per-pixel */
"32 32 212 2 ",
"   c #6F0094",
".  c #710096",
"X  c #74009A",
"o  c #7A009D",
"O  c #751A9A",
"+  c #7D2C9F",
"@  c #7700A0",
"#  c #7B00A3",
"$  c #7F09A6",
"%  c #7E00A9",
"&  c #7C19A4",
"*  c #7E419F",
"=  c #8400A4",
"-  c #8200AC",
";  c #8C00AB",
":  c #9200AF",
">  c #881DAA",
",  c #8600B2",
"<  c #8A00B6",
"1  c #8F0FB0",
"2  c #8C00BB",
"3  c #9500B2",
"4  c #9C00B6",
"5  c #9500BC",
"6  c #9E00BC",
"7  c #A300BC",
"8  c #8B27AD",
"9  c #813FA5",
"0  c #8A3EAD",
"q  c #8829B2",
"w  c #8957A6",
"e  c #8F5FA9",
"r  c #9A56B7",
"t  c #945DB4",
"y  c #9A5AB5",
"u  c #9856B9",
"i  c #9B58BF",
"p  c #9765B0",
"a  c #9F6DB7",
"s  c #8F00C0",
"d  c #9200C4",
"f  c #9D00C3",
"g  c #970DC0",
"h  c #9601C9",
"j  c #9B00CC",
"k  c #A500C4",
"l  c #AB00C4",
"z  c #A20AC2",
"x  c #A300CB",
"c  c #AD00CC",
"v  c #B101C6",
"b  c #B300CB",
"n  c #BB00CD",
"m  c #B009C9",
"M  c #A417C5",
"N  c #A400D2",
"B  c #AB00D6",
"V  c #AD0BD0",
"C  c #B400D5",
"Z  c #BC00D2",
"A  c #B300DA",
"S  c #BB00DC",
"D  c #B91FD0",
"F  c #AA32C6",
"G  c #BD23D4",
"H  c #BF00E0",
"J  c #C301D4",
"K  c #C400DC",
"L  c #CA00DB",
"P  c #D000DE",
"I  c #C334D4",
"U  c #C53FD9",
"Y  c #C400E2",
"T  c #CC00E5",
"R  c #CE0BE3",
"E  c #D400E3",
"W  c #DA00E6",
"Q  c #D400EA",
"!  c #DC00ED",
"~  c #D91BE6",
"^  c #D717EB",
"/  c #DF00F0",
"(  c #E300ED",
")  c #E300F2",
"_  c #EB00F5",
"`  c #F000F7",
"'  c #F300FA",
"]  c #F801FC",
"[  c #CA2EE5",
"{  c #D43FE8",
"}  c #DF3EEF",
"|  c #A440C6",
" . c #A34EC3",
".. c #B94ACE",
"X. c #B558CC",
"o. c #B95CD0",
"O. c #9E62C2",
"+. c #A06AC1",
"@. c #BC61CE",
"#. c #AD78CA",
"$. c #B475CC",
"%. c #C852DF",
"&. c #C37DD4",
"*. c #C370DB",
"=. c #C578DE",
"-. c #C848E3",
";. c #C55BE2",
":. c #D25DE4",
">. c #EC42F5",
",. c #CA71E2",
"<. c #E763F2",
"1. c #F066F6",
"2. c #EC7FF4",
"3. c #A283B6",
"4. c #A582BE",
"5. c #A880BD",
"6. c #AD91BE",
"7. c #AD83C9",
"8. c #B38ECC",
"9. c #B88CCB",
"0. c #B293C7",
"q. c #B79BC7",
"w. c #B894CE",
"e. c #BB9BCB",
"r. c #B792D1",
"t. c #BA92D5",
"y. c #BD9FD1",
"u. c #BF92DB",
"i. c #B6A3C4",
"p. c #BBAAC7",
"a. c #B7A1C8",
"s. c #BCA2CC",
"d. c #BDADC9",
"f. c #BFA5D1",
"g. c #C09BCF",
"h. c #C182D6",
"j. c #C59AD4",
"k. c #CA99D7",
"l. c #C392DE",
"z. c #C49AD9",
"x. c #CF99DE",
"c. c #D29EDD",
"v. c #C1ADCD",
"b. c #C1B1CE",
"n. c #C0A4D5",
"m. c #C2AED0",
"M. c #CBA4DD",
"N. c #C7A9D9",
"B. c #C4B4D1",
"V. c #C9BCD3",
"C. c #CAB4D9",
"Z. c #CCBADB",
"A. c #D983E4",
"S. c #DB80EC",
"D. c #C792E2",
"F. c #CD91E5",
"G. c #D497E5",
"H. c #D69CE4",
"J. c #D697E9",
"K. c #DF93ED",
"L. c #D99EEA",
"P. c #EF80F5",
"I. c #D7ACE1",
"U. c #DBA3EC",
"Y. c #DCACEB",
"T. c #D6B6E2",
"R. c #DEB9E7",
"E. c #E0A5EE",
"W. c #E8A3EF",
"Q. c #E1AEEB",
"!. c #E0B3EC",
"~. c #E3BBEF",
"^. c #E5A0F0",
"/. c #EFA6F5",
"(. c #E8AEF2",
"). c #F1A9F6",
"_. c #EEB3F5",
"`. c #EDBCF4",
"'. c #F1BCF6",
"]. c #CDC1D6",
"[. c #D2C6DB",
"{. c #D3C8DB",
"}. c #D6C5E1",
"|. c #DCCBE5",
" X c #DEC1EA",
".X c #DCD2E4",
"XX c #DFD3E9",
"oX c #E0C4E9",
"OX c #E5CAEC",
"+X c #E4D4EB",
"@X c #EAD3EF",
"#X c #E4DBEB",
"$X c #E5C1F1",
"%X c #E7C9F1",
"&X c #EBCFF2",
"*X c #EAD3F0",
"=X c #EADCF0",
"-X c #F4D3F7",
";X c #F2DDF7",
":X c #F6D5F9",
">X c #E9E3ED",
",X c #EDE3F3",
"<X c #EFEAF2",
"1X c #F2E4F6",
"2X c #F2ECF5",
"3X c #F4E5F8",
"4X c #F5EFF8",
"5X c #F4F1F5",
"6X c #F7F2FA",
"7X c #F9F4FB",
"8X c #FFFFFF",
"9X c None",
/* pixels */
"9X9X9X9X9X9X9X9X9X9X9X9X` ` ` ` ' ' ' ] 9X9X9X9X9X9X9X9X9X9X9X9X",
"9X9X9X9X9X9X9X9X9X_ _ _ _ ` ` _ ' ' ' ' ] ] ] 9X9X9X9X9X9X9X9X9X",
"9X9X9X9X9X9X9X) ) ) ) _ _ _ _ >.>.' ' ' ] ] ] ] ] 9X9X9X9X9X9X9X",
"9X9X9X9X9X9X! ! / ) ) ) _ _ P./.).P.` ` ` ` ` ` ` _ 9X9X9X9X9X9X",
"9X9X9X9X9XQ ! ! ! ) ) ) <.-X8X-X:X8X-X1.` ` ` _ ( ( ( 9X9X9X9X9X",
"9X9X9X9XQ Q Q ! ! ! } `.8X8X8X'.`.8X8X8X'.>.( ( ( W W P 9X9X9X9X",
"9X9X9XT T Q Q Q ^ ^.7X8X8X8X8X_._.8X8X8X8X7XW.~ W P P L L 9X9X9X",
"9X9XY T T T T S.1X8X8X8X8X8X8X_._.8X8X8X8X8X8X3XA.L L J J J 9X9X",
"9X9XY Y Y [ &X8X8X8X8X8X8X8X8X(.(.8X8X8X8X8X8X8X8X@XI Z n n 9X9X",
"9XH H H J.~.3X8X8X8X8X8X;XK.{ T R :.Y.7X8X8X8X8X8X2XR.c.n v v 9X",
"9XA A H ;.Y.%XU.7X8X8XU.R T T K K K K U *X8X8X7XI.oXI.@.v l l 9X",
"9XB A A F.8X7XU.-.$XL.Y K %.!.&XOXH.G n G *XoX..c.7X8Xk.l 7 7 9X",
"B B B A F.8X8X8X1X,.S S G.8X8X8X8X7Xx.b b m &.,X8X8X8Xk.7 7 4 4 ",
"N N B B F.8X8X8X8X=.C *.8X8X8X8X@Xo.c l X.+X8X8X8X8X8Xj.4 4 4 3 ",
"N N N N D.8X8X8X7XV c R.8X8X,Xh.l k F T.7X8X8X8X8X8X8Xg.4 3 : : ",
"j j j N l.8X8X8X,Xx x =X7XM.M k z j.7X8X8X8X8X8X8X8X8Xg.: : : ; ",
"j h j j u.8X8X8X<Xf f z.F f 6 $.=X8X8X8X7X,X8X8X8X8X8Xe.: ; ; ; ",
"h h d d t.8X8X8X6Xg f 5 5  .|.8X8X8X8X8X8.3 |.8X8X8X8Xe.; ; = = ",
"d d d s t.8X8X8X8X#.2 5 C.7X8X8X8X8X8X>X1 : [.8X8X8X8Xq.= = = = ",
"d d s 2 t.8X8X8XXXi < < w.7X8X8X8X8X,Xr ; 8 r .X8X8X8Xq.= = = o ",
"9X2 s 2 r.8X2X7.+.#Xy., , u Z..X|.s.8 - > +X#Xa 5.<X8Xq.o o o 9X",
"9X2 2 < O.f.XX}.8X8X7Xf.- % - - - - = 0 .X8X8X8X{..Xi.p o o o 9X",
"9X< < < 8.C.2X8X8X8X8X8X#X0.0 % $ t v.5X8X8X8X8X8X2Xv.6.o o o 9X",
"9X9X, < , q Z.7X8X8X8X8X8X8X8Xb.v.8X8X8X8X8X8X8X7XV.+ o X X 9X9X",
"9X9X, , , - % t .X8X8X8X8X8X8XB.b.8X8X8X8X8X8X.Xe X X . X o 9X9X",
"9X9X9X, % % % % # 7.>X8X8X8X8XB.b.8X8X8X8X>X3.X X X . X . 9X9X9X",
"9X9X9X9X% % % % # # & a.5X8X8X{.[.8X8X5Xi.O X . . . . . 9X9X9X9X",
"9X9X9X9X9X% # % # # @ @ 9 V.7X].].7X].* . . .   . .   9X9X9X9X9X",
"9X9X9X9X9X9X# # @ @ @ @ @ X w p.d.w . . .       . . 9X9X9X9X9X9X",
"9X9X9X9X9X9X9X@ @ @ X X X X X O O . .             9X9X9X9X9X9X9X",
"9X9X9X9X9X9X9X9X9X@ X X X . X     .           9X9X9X9X9X9X9X9X9X",
"9X9X9X9X9X9X9X9X9X9X9X9XX . . . .       9X9X9X9X9X9X9X9X9X9X9X9X"
};
