<svg xmlns="http://www.w3.org/2000/svg" viewBox="0 0 506.48 506.16"><defs><style>.cls-1{fill:#ad03c3;}</style></defs><title>Middel 2</title><g id="Laag_2" data-name="Laag 2"><g id="Laag_1-2" data-name="Laag 1"><path class="cls-1" d="M267.59,506.16h-28.5c-1.14-.25-2.27-.57-3.43-.73-10.43-1.41-21-2.27-31.29-4.26C159.5,492.51,120,472.7,85.78,442.53A250.13,250.13,0,0,1,24.59,361C11.67,333.63,4.16,304.07,1.37,274Q.68,266.57,0,259.15V246.48c.25-1.41.59-2.82.73-4.24.89-9,1.4-18.13,2.66-27.12a242.69,242.69,0,0,1,28.47-84.19,254.12,254.12,0,0,1,70.8-81C142.53,20.4,187.14,4.35,235.82.65c28-2.12,55.94,1,83.49,8.07a248.33,248.33,0,0,1,29.57,10c66.79,28.46,114.58,76.64,141.61,145.42a230.83,230.83,0,0,1,15.77,75.56q3.08,79.35-36.46,144.49a251,251,0,0,1-76.3,79.58,247.91,247.91,0,0,1-106.73,40C280.38,504.65,274,505.38,267.59,506.16Zm148.3-178.84a887.47,887.47,0,0,0,0-149.68c-8.88,2.22-15.69.73-20.06-6.38-4.69-7.62-2.43-14.59,3.82-21.35-.87-.54-1.59-.9-2.22-1.36-3.92-2.9-7.62-6.15-11.76-8.67-24-14.57-47.85-29.29-72.15-43.29C301,89.38,287.66,83.66,274.79,77.05c-4-2-5.54-1.15-7,3-2.14,5.92-7.2,8.64-13.29,8.9s-10.59-2.65-13.76-7.74c-1.12-1.79-1.83-4.71-3.33-5.18-1.76-.55-4.18,1-6.31,1.66a11,11,0,0,0-1.47.6c-38.62,17.53-74.87,39.18-109.81,63.1-3.87,2.65-7.4,5.77-11.24,8.79l1.67,1.95c5,6,5.77,12.73,2.11,19-3.31,5.72-9.45,8.34-17,6.94-2.3-.43-2.84.55-3,2.37-.74,6.94-1.85,13.86-2.13,20.82-1.47,36.92-1.68,73.84.74,110.74.34,5,1.21,10,1.86,15.3,8.52-2.29,15.15-.61,19.49,6.25,4.87,7.7,2.69,14.8-3.8,21.68A861,861,0,0,0,238.09,430c2.4-8.85,7-14,15.44-14.24,9-.28,13.91,5.09,16.62,14.21a858.07,858.07,0,0,0,129.5-74.83c-6.24-6.6-8.48-13.31-4.29-20.78S406.53,325,415.89,327.32ZM254.11,82.19c4.34-.07,8.61-4.42,8.54-8.7a8.64,8.64,0,0,0-8.81-8.22,8.4,8.4,0,0,0-8.27,8.3C245.6,78,249.78,82.26,254.11,82.19ZM99.32,154.87a8.15,8.15,0,1,0-.3,16.3,8.15,8.15,0,1,0,.3-16.3ZM409,171.14a8.24,8.24,0,0,0,8.22-8.23,8.35,8.35,0,0,0-8.11-8,8.12,8.12,0,1,0-.11,16.24ZM99.19,350a7.94,7.94,0,0,0,8.08-8,8.1,8.1,0,0,0-8.33-8.15,8.38,8.38,0,0,0-8,8.2A8.24,8.24,0,0,0,99.19,350Zm309.67,0a8.16,8.16,0,0,0,8.24-7.81,8.33,8.33,0,0,0-7.86-8.24,8,8,0,0,0-8.31,8.06A7.79,7.79,0,0,0,408.86,350ZM254.1,439.42a8.06,8.06,0,0,0,8-8,8.1,8.1,0,1,0-16.2.08A8.13,8.13,0,0,0,254.1,439.42Z"/><path class="cls-1" d="M336,308.31a101.67,101.67,0,0,1-74.26,45.52c-.09,1.59-.25,3.12-.26,4.64,0,13.46,0,26.92,0,40.37,0,3.61-1.07,6.49-4.51,8.07-4.93,2.27-10.17-1.32-10.2-7.17-.09-13.32,0-26.65,0-40,0-5.72,0-5.53-5.75-6.16-27.38-3-49.83-15.19-67.47-36.3-1.76-2.11-3.38-4.33-5.27-6.75L135,329.76c-1.71,1-3.41,2-5.17,2.89-4,2-8.19.74-10.16-2.94s-.75-7.5,3.14-9.79c9.88-5.82,19.83-11.5,29.75-17.25,2.71-1.57,5.42-3.17,8.21-4.81-12.52-30.16-13.7-60,1.23-90.06-6.48-3.8-12.78-7.52-19.09-11.2s-12.78-7.37-19.15-11.11c-4.63-2.72-6-6.25-3.88-10.08s6.39-4.87,10.92-2.29c11.8,6.7,23.6,13.39,35.28,20.3,2.55,1.51,3.88,1.49,5.78-1C189.1,170.22,212,157.73,239.7,153.8c7.3-1,7.3-1,7.31-8.56,0-13.06.25-26.13,0-39.18-.11-4.82,3.18-8.19,7-8.31,3.45-.1,7.18,3.23,7.08,8.24-.3,14.51,0,29-.06,43.54,0,2.86.77,4.25,3.78,4.68,29.05,4.16,52,18.35,69.22,42.07a10,10,0,0,0,1,1c5.37-3.06,10.94-6.2,16.48-9.38,8.56-4.92,17.09-9.91,25.69-14.77,4.57-2.59,8.79-1.72,11.05,2.07s.79,7.73-3.93,10.45Q330,217.07,275.54,248.45,237.89,270.2,200.27,292c-.66.38-1.25.88-2.16,1.54a61.94,61.94,0,0,0,26.66,21.19c36.46,15,74.75-1.41,89.18-38.12,4-10.14,10-14.05,18.78-12.24,6.71,1.37,12.58,7.35,12.89,14.21a45.92,45.92,0,0,1-1.53,13.55c-.74,2.81-.25,3.9,2.08,5.22,13.06,7.42,26,15,39.05,22.47,2.93,1.68,4.4,4.15,4,7.51a6.41,6.41,0,0,1-5.43,6,11.18,11.18,0,0,1-6.65-1.35c-12.3-6.89-24.46-14-36.67-21.07C339.14,310.11,337.78,309.34,336,308.31ZM187,263.19l106.12-61.26c-18.11-15.65-48.26-21.06-73.94-6.74C192.37,210.11,184.65,230.33,187,263.19Z"/></g></g></svg>